<?xml version="1.0" standalone="no"?><!DOCTYPE svg PUBLIC "-//W3C//DTD SVG 1.1//EN" "http://www.w3.org/Graphics/SVG/1.1/DTD/svg11.dtd"><svg class="icon" width="200px" height="200.00px" viewBox="0 0 1024 1024" version="1.1" xmlns="http://www.w3.org/2000/svg"><path d="M292.432 622.208m-70.928 0a70.928 70.928 0 1 0 141.856 0 70.928 70.928 0 1 0-141.856 0Z" fill="#12ADA9" /><path d="M676.96 622.208m-70.928 0a70.928 70.928 0 1 0 141.856 0 70.928 70.928 0 1 0-141.856 0Z" fill="#12ADA9" /><path d="M933.664 637.76A440 440 0 0 1 72.176 512a444.592 444.592 0 0 1 3.488-53.056c58.144-28.976 181.28-103.744 210.848-227.584 0 0 255.008 298.8 656.448 192.08a441.856 441.856 0 0 1 9.088 88.64v0.608h57.072v-0.704a496.912 496.912 0 1 0-16.144 125.76z" fill="#999999" /><path d="M512 1024a512 512 0 1 1 512-512v1.6l-1.456 13.312-13.472 0.704h-74.016l2.096-16.784a424.704 424.704 0 0 0-5.952-69.008c-336.576 81.6-572.224-117.376-637.664-181.616C254.4 371.424 144.352 440.256 89.6 468.592A412.128 412.128 0 0 0 87.12 512 425.376 425.376 0 0 0 512 936.896h0.208A425.072 425.072 0 0 0 919.36 633.472l3.2-10.656h89.76l-4.8 18.688A512 512 0 0 1 512 1024z m0-994.128a482.144 482.144 0 1 0 461.248 622.816H944.64a454.912 454.912 0 0 1-432.416 314.064H512A455.264 455.264 0 0 1 57.248 512a460.672 460.672 0 0 1 3.552-54.848l0.96-8 7.216-3.6c51.536-25.6 174.4-98.272 202.992-217.6l6.816-28.512 19.072 22.272C300.352 224.576 551.824 512 939.2 409.024l15.28-4.064 3.2 15.488a458.704 458.704 0 0 1 9.152 77.328h27.2A482.592 482.592 0 0 0 512 29.872z" fill="#999999" /></svg>