<?xml version="1.0" standalone="no"?><!DOCTYPE svg PUBLIC "-//W3C//DTD SVG 1.1//EN" "http://www.w3.org/Graphics/SVG/1.1/DTD/svg11.dtd"><svg class="icon" width="200px" height="200.00px" viewBox="0 0 1024 1024" version="1.1" xmlns="http://www.w3.org/2000/svg"><path d="M514.396316 90.166414a166.571888 166.571888 0 1 1-166.587888 166.587887A166.747883 166.747883 0 0 1 514.396316 90.166414m0-68.094319a234.682206 234.682206 0 1 0 234.682206 234.682206A234.394213 234.394213 0 0 0 514.396316 22.072095zM97.462609 1001.951904a34.399151 34.399151 0 0 1-34.303153-34.303153 451.060864 451.060864 0 0 1 771.180961-317.480162 34.607146 34.607146 0 0 1 0 48.510802 33.999161 33.999161 0 0 1-47.998815 0A382.822549 382.822549 0 0 0 131.749762 968.144739a33.983161 33.983161 0 0 1-34.287153 33.807165z" fill="#999999" /><path d="M97.462609 1023.99936A56.414607 56.414607 0 0 1 41.112 967.648751a473.588308 473.588308 0 0 1 394.966249-466.388486 256.729662 256.729662 0 1 1 156.396139 0 473.012323 473.012323 0 0 1 257.433645 133.244711 56.942594 56.942594 0 0 1 0.271993 79.39004 55.998618 55.998618 0 0 1-79.470038 0.287993A360.775093 360.775093 0 0 0 153.797218 968.144739 56.158614 56.158614 0 0 1 97.462609 1023.99936zM513.900328 538.955335A429.189404 429.189404 0 0 0 85.206911 967.648751a12.415693 12.415693 0 0 0 12.255698 12.255698 11.887707 11.887707 0 0 0 12.255697-11.75971A404.790007 404.790007 0 0 1 801.957217 683.207773a12.287697 12.287697 0 0 0 16.783585 0 12.54369 12.54369 0 0 0 0-17.327572 428.54942 428.54942 0 0 0-304.840474-126.924866z m0.495988-494.835784a212.634751 212.634751 0 1 0 212.63475 212.63475 212.874745 212.874745 0 0 0-212.63475-212.63475z m0 401.270093a188.619343 188.619343 0 1 1 188.619343-188.635343 188.795339 188.795339 0 0 1-188.619343 188.635343z m0-333.159775a144.524432 144.524432 0 1 0 144.524432 144.524432 144.700428 144.700428 0 0 0-144.524432-144.524432z" fill="#999999" /><path d="M946.353652 871.043136H722.695173a36.495099 36.495099 0 1 1 0-72.990198h223.658479a36.495099 36.495099 0 1 1 0 72.990198zM946.353652 1009.039729H722.695173a36.495099 36.495099 0 1 1 0-72.990198h223.658479a36.495099 36.495099 0 1 1 0 72.990198z" fill="#12ADA9" /></svg>