<?xml version="1.0" standalone="no"?><!DOCTYPE svg PUBLIC "-//W3C//DTD SVG 1.1//EN" "http://www.w3.org/Graphics/SVG/1.1/DTD/svg11.dtd"><svg class="icon" width="200px" height="200.00px" viewBox="0 0 1024 1024" version="1.1" xmlns="http://www.w3.org/2000/svg"><path d="M503.944 1018.208a164.8 164.8 0 0 1-79.552-21.696l-122.944-65.072C221.912 888 192.984 794.032 221.912 707.2L359.304 338.448A99.824 99.824 0 0 0 381.064 309.52a25.248 25.248 0 0 1-7.232-14.4l-57.92-101.312c-21.696-43.392-14.4-86.784 7.232-130.176S388.232 5.792 431.624 5.792h159.04a126.528 126.528 0 0 1 101.248 50.624 160.768 160.768 0 0 1 21.696 115.712 171.424 171.424 0 0 1-166.4 122.944h-21.568a123.088 123.088 0 0 0-94.016 72.32L294.216 736.176a98.096 98.096 0 0 0 50.624 130.176l115.712 65.088a107.2 107.2 0 0 0 94.016 0l140.304-72.32a116.8 116.8 0 0 0 50.624-130.176l-101.248-274.8c-7.232-14.4 7.232-36.16 21.696-43.392a35.12 35.12 0 0 1 43.392 21.696l94.016 282.032a185.712 185.712 0 0 1-79.568 216.96l-140.304 72.32a259.968 259.968 0 0 1-79.536 14.448zM431.624 78.096A54.592 54.592 0 0 0 381.064 107.024c-7.232 14.4-14.4 36.16 0 50.624l50.624 101.248a145.344 145.344 0 0 1 94.016-28.928h21.696a108.8 108.8 0 0 0 101.248-72.32c7.232-14.4 0-36.16-7.232-50.624a52.288 52.288 0 0 0-43.392-28.928z" fill="#999999" /><path d="M503.944 1024a171.984 171.984 0 0 1-82.128-22.304l-123.072-65.152C219.32 893.232 185.496 798.192 216.408 705.424l137.92-370.176 0.896-0.896a95.472 95.472 0 0 0 18.848-24 28.144 28.144 0 0 1-6-13.568l-57.184-100.112c-20.48-40.944-18.128-85.216 7.072-135.632S393.704 0 431.624 0h159.04a132.96 132.96 0 0 1 105.92 52.928l0.336 0.496a167.28 167.28 0 0 1 22.4 119.632l-0.16 0.704a177.936 177.936 0 0 1-171.824 127.04h-21.216a117.488 117.488 0 0 0-89.12 68.688L299.64 738.208a92.064 92.064 0 0 0 47.488 122.832l0.56 0.272 115.696 65.088a101.04 101.04 0 0 0 88.592-0.128l139.952-72.128a110.928 110.928 0 0 0 48-123.584l-101.008-274.128c-9.04-18.72 8.64-42.944 24.432-50.848l0.752-0.32a40.304 40.304 0 0 1 50.4 24.592l0.304 0.752 94.016 282.032a192.544 192.544 0 0 1-82.064 223.744l-141.456 72.848A268.272 268.272 0 0 1 503.944 1024zM364.296 341.648L227.32 709.28C198.264 796.448 229.864 885.792 304.264 926.4l122.88 65.056a159.408 159.408 0 0 0 76.8 21.024 256.272 256.272 0 0 0 77.296-14.032l139.904-72.112a180.624 180.624 0 0 0 76.8-209.824l-93.968-281.824a29.504 29.504 0 0 0-35.808-18.56c-12.48 6.48-24 24.992-18.752 35.44l0.256 0.592 101.248 274.8A122.448 122.448 0 0 1 698.072 864l-0.56 0.32-140.304 72.32a112.944 112.944 0 0 1-99.2 0l-115.68-65.072a103.44 103.44 0 0 1-53.376-137.6l137.296-368.56a129.344 129.344 0 0 1 98.48-76h22.64a166.4 166.4 0 0 0 160.688-118.4 154.192 154.192 0 0 0-20.8-111.152 121.344 121.344 0 0 0-96.432-48h-159.2c-34.656 0-80.72 9.488-103.296 54.656-23.792 47.568-26.08 87.296-7.232 124.992l58.464 102.288v1.6a19.2 19.2 0 0 0 5.536 10.368l2.944 2.944-1.872 3.728a103.376 103.376 0 0 1-21.872 29.216z m65.248-73.968l-53.28-106.64c-8.72-9.232-15.504-26.4-0.4-56.592l0.368-0.624A60.56 60.56 0 0 1 431.624 72.32h166.4a58.416 58.416 0 0 1 48.208 31.504l0.368 0.624c5.248 10.496 16.4 36.8 7.424 55.408a114.992 114.992 0 0 1-106.608 75.904h-21.776a139.824 139.824 0 0 0-90.544 27.776z m-43.536-157.744c-9.808 19.76-10.112 34.432-0.928 43.616l0.656 0.656 48 96a151.52 151.52 0 0 1 91.872-26.048h21.696a103.12 103.12 0 0 0 95.76-68.368l0.304-0.752a56.24 56.24 0 0 0-7.072-45.12 47.136 47.136 0 0 0-38.4-26.048H431.624a48.992 48.992 0 0 0-45.616 26.064z" fill="#999999" /><path d="M434.04 295.056l216.944-72.32 33.744-108.48L576.264 44.352 373.768 63.632 337.608 148l48.208 110.88z" fill="#999999" /><path d="M433.512 298.272L383.48 260.8 334.456 148.016l37.328-87.088 205.2-19.552 111.168 71.648-34.832 112z m-45.344-41.232l46.4 34.784 214.096-71.36 32.656-104.96-105.792-68.176-199.776 19.024L340.76 148z" fill="#999999" /><path d="M509.72 759.808a40.496 40.496 0 0 1-40.496-40.496V498.016a40.496 40.496 0 0 1 80.992 0v221.296a40.496 40.496 0 0 1-40.496 40.496z" fill="#12ADA9" /></svg>