<?xml version="1.0" standalone="no"?><!DOCTYPE svg PUBLIC "-//W3C//DTD SVG 1.1//EN" "http://www.w3.org/Graphics/SVG/1.1/DTD/svg11.dtd"><svg class="icon" width="200px" height="200.00px" viewBox="0 0 1024 1024" version="1.1" xmlns="http://www.w3.org/2000/svg"><path d="M795.881439 349.115438c-13.961437-23.266735-4.656139-51.189609 18.617576-65.151046S865.688624 279.308253 879.650061 302.574988a420.588293 420.588293 0 0 1 0 418.843113C763.302425 921.53436 507.347398 991.341546 307.231139 874.99391S37.307695 502.691247 153.655331 302.574988s372.302663-269.923445 572.418922-153.575809c23.266735 13.961437 27.922874 41.884311 18.617576 65.151047-13.961437 23.266735-41.884311 27.922874-65.151046 18.617576-153.575808-88.424762-353.692067-37.228172-446.765988 120.996795-88.424762 153.575808-37.228172 353.692067 120.996795 446.765988 153.575808 88.424762 353.692067 37.228172 446.765988-120.996795C851.727187 572.498432 851.727187 446.845498 795.881439 349.115438z" fill="#999999" /><path d="M465.463087 46.619961A43.978527 43.978527 0 0 1 511.996557 0.07951 43.978527 43.978527 0 0 1 558.537008 46.619961v279.228742a43.978527 43.978527 0 0 1-46.540451 46.540451 43.978527 43.978527 0 0 1-46.540451-46.540451z m0 651.531405a43.978527 43.978527 0 0 1 46.540451-46.54045A43.978527 43.978527 0 0 1 558.537008 698.151366v279.228743a43.978527 43.978527 0 0 1-46.540451 46.54045A43.978527 43.978527 0 0 1 465.463087 977.380109zM698.151379 558.536995a43.978527 43.978527 0 0 1-46.540451-46.54045A43.978527 43.978527 0 0 1 698.151379 465.463075h279.228742a43.978527 43.978527 0 0 1 46.540451 46.54045A43.978527 43.978527 0 0 1 977.380121 558.536995h-279.228742zM46.619973 558.536995A43.978527 43.978527 0 0 1 0.079523 511.996545a43.978527 43.978527 0 0 1 46.54045-46.540451h279.228743a43.978527 43.978527 0 0 1 46.54045 46.540451A43.978527 43.978527 0 0 1 325.848716 558.536995h-279.228743z" fill="#12ADA9" /><path d="M511.996557 744.691817a232.688292 232.688292 0 1 1 232.688292-232.688292 230.43352 230.43352 0 0 1-232.688292 232.688292z m0-93.073921a139.614371 139.614371 0 1 0-139.614371-139.614371 137.122255 137.122255 0 0 0 139.614371 139.607391z" fill="#999999" /></svg>