<?xml version="1.0" standalone="no"?><!DOCTYPE svg PUBLIC "-//W3C//DTD SVG 1.1//EN" "http://www.w3.org/Graphics/SVG/1.1/DTD/svg11.dtd"><svg class="icon" width="200px" height="176.70px" viewBox="0 0 1159 1024" version="1.1" xmlns="http://www.w3.org/2000/svg"><path d="M579.712504 575.411218a45.380619 45.380619 0 0 1-17.463839-4.094219L34.764634 329.830509a40.398715 40.398715 0 0 1 0-73.913344L562.266781 14.485023a42.826261 42.826261 0 0 1 34.891446 0l527.502146 241.450258a40.398715 40.398715 0 0 1 0 73.913344L597.158227 571.244535a34.60159 34.60159 0 0 1-17.463839 4.148567zM151.015107 292.873837L579.712504 489.142751 1008.355552 292.873837 579.712504 96.604922 151.015107 292.873837z" fill="#999999" /><path d="M580.654537 586.099667h-1.286238a55.815445 55.815445 0 0 1-21.576174-5.036252L30.308094 339.504461a51.069048 51.069048 0 0 1 0.144928-93.388061L557.828357 4.792954a53.587175 53.587175 0 0 1 43.677714 0l527.592726 241.48649a51.069048 51.069048 0 0 1-0.144928 93.388061L601.904623 580.809791a45.290039 45.290039 0 0 1-21.250086 5.289876z m-0.670293-21.340666a23.695749 23.695749 0 0 0 12.083383-2.862331l0.652176-0.326088 527.502146-241.414026a29.728382 29.728382 0 0 0 0.144929-54.456743L592.701687 24.195207a32.10158 32.10158 0 0 0-26.105179 0L39.203058 265.591117a29.728382 29.728382 0 0 0-0.144928 54.456743l527.592726 241.558954a34.583474 34.583474 0 0 0 13.333388 3.134071zM579.712504 500.881929L125.380945 292.873837 579.712504 84.865744 1033.989715 292.873837zM176.64927 292.873837L579.712504 477.403573 982.72139 292.873837 579.712504 108.3441zM941.489338 797.078787a40.000163 40.000163 0 0 1-40.398715-39.565379v-207.24722a40.398715 40.398715 0 0 1 80.815546 0v206.52258a40.525527 40.525527 0 0 1-40.416831 40.290019z" fill="#999999" /><path d="M941.090786 807.586076a50.5618 50.5618 0 0 1-50.489336-49.945855V550.266188a50.906004 50.906004 0 0 1 101.793892 0v206.52258a51.141512 51.141512 0 0 1-50.83354 50.851656z m0.416668-287.211314a29.945774 29.945774 0 0 0-29.909542 29.909542v207.24722a29.529106 29.529106 0 0 0 29.51099 29.076206h0.380436a30.090702 30.090702 0 0 0 29.945774-29.891426V550.266188a29.945774 29.945774 0 0 0-29.927658-29.909542zM218.714658 797.078787a40.000163 40.000163 0 0 1-40.398715-39.565379v-383.334893a40.398715 40.398715 0 1 1 80.815546 0v383.334893a40.398715 40.398715 0 0 1-40.398715 39.565379z" fill="#999999" /><path d="M218.29799 807.586076a50.5618 50.5618 0 0 1-50.489336-49.945855V374.178515a50.906004 50.906004 0 0 1 101.793892 0v383.334893a51.213977 51.213977 0 0 1-50.851656 50.054552zM218.714658 344.323321a29.945774 29.945774 0 0 0-29.909542 29.909542v383.334893a29.529106 29.529106 0 0 0 29.51099 29.076206h0.434784a30.05447 30.05447 0 0 0 29.891426-29.293598V374.178515A29.945774 29.945774 0 0 0 218.714658 344.323321z" fill="#999999" /><path d="M579.712504 1013.492711a510.128887 510.128887 0 0 1-278.262002-85.634407c-76.34089-51.648761-123.188907-115.453368-123.188907-167.174593a41.032776 41.032776 0 0 1 82.047435 0c0 41.19582 132.917208 172.10215 320.073766 172.10215s320.073766-130.851982 320.073767-172.10215a41.032776 41.032776 0 0 1 82.047435 0c0 51.648761-47.627005 115.453368-123.188907 167.174593A513.987599 513.987599 0 0 1 579.712504 1013.492711z" fill="#999999" /><path d="M579.712504 1024a519.368055 519.368055 0 0 1-283.986663-87.39166c-78.859017-53.351666-127.790375-120.743245-127.790375-175.906513a51.521949 51.521949 0 0 1 103.025781-0.217392c0 31.467519 123.569343 161.757905 309.566477 161.757905s309.566477-130.290385 309.566478-161.540513a51.521949 51.521949 0 0 1 103.025781-0.217392c0 55.543704-47.735701 121.268609-127.681679 176.033325A523.371695 523.371695 0 0 1 579.712504 1024zM219.20379 731.009677A30.489254 30.489254 0 0 0 188.787 760.991683c0 48.079906 45.416851 108.804791 118.514975 158.261514A498.335361 498.335361 0 0 0 579.712504 1003.003538a502.302769 502.302769 0 0 0 273.914158-83.877153c73.007543-50.000203 118.424395-110.743204 118.424395-158.424558a30.398674 30.398674 0 0 0-29.891426-29.69215 30.996503 30.996503 0 0 0-21.739219 8.46018A30.308094 30.308094 0 0 0 910.963852 760.991683c0 52.717606-143.116524 182.319582-330.56294 182.319583s-330.544823-129.674441-330.544823-182.609439a30.398674 30.398674 0 0 0-29.891426-29.69215z" fill="#999999" /><path d="M1091.471833 784.633084a48.913243 48.913243 0 0 1-48.913243-48.913243V548.291543a48.913243 48.913243 0 1 1 97.935181 0V735.629261a48.913243 48.913243 0 0 1-49.021938 49.003823z" fill="#12ADA9" /></svg>