<?xml version="1.0" standalone="no"?><!DOCTYPE svg PUBLIC "-//W3C//DTD SVG 1.1//EN" "http://www.w3.org/Graphics/SVG/1.1/DTD/svg11.dtd"><svg class="icon" width="200px" height="200.00px" viewBox="0 0 1024 1024" version="1.1" xmlns="http://www.w3.org/2000/svg"><path d="M714.533154 1023.984h-467.032703A227.356448 227.356448 0 0 1 20.384 796.915548V227.068452A227.356448 227.356448 0 0 1 247.500451 0h528.983735a227.356448 227.356448 0 0 1 227.116451 227.068452v575.527007a57.039109 57.039109 0 1 1-114.078217 0V227.068452a113.150232 113.150232 0 0 0-113.038234-112.990234H247.500451a113.150232 113.150232 0 0 0-113.038233 112.990234v569.847096a113.150232 113.150232 0 0 0 113.038233 113.006234h467.032703a57.039109 57.039109 0 0 1 0 114.078218z" fill="#999999" /><path d="M271.820071 265.499852m40.735364 0l377.882095 0q40.735364 0 40.735364 40.735363l0 0.016q0 40.735364-40.735364 40.735363l-377.882095 0q-40.735364 0-40.735364-40.735363l0-0.016q0-40.735364 40.735364-40.735363Z" fill="#12ADA9" /><path d="M271.820071 421.337417m40.735364 0l377.882095 0q40.735364 0 40.735364 40.735363l0 0.016q0 40.735364-40.735364 40.735363l-377.882095 0q-40.735364 0-40.735364-40.735363l0-0.016q0-40.735364 40.735364-40.735363Z" fill="#12ADA9" /><path d="M271.820071 577.174982m40.735364 0l280.043624 0q40.735364 0 40.735364 40.735363l0 0.016q0 40.735364-40.735364 40.735363l-280.043624 0q-40.735364 0-40.735364-40.735363l0-0.016q0-40.735364 40.735364-40.735363Z" fill="#12ADA9" /></svg>