<?xml version="1.0" standalone="no"?><!DOCTYPE svg PUBLIC "-//W3C//DTD SVG 1.1//EN" "http://www.w3.org/Graphics/SVG/1.1/DTD/svg11.dtd"><svg class="icon" width="200px" height="200.00px" viewBox="0 0 1024 1024" version="1.1" xmlns="http://www.w3.org/2000/svg"><path d="M170.9216 313.136a57.488 57.488 0 0 0-22.72-79.536 57.488 57.488 0 0 0-79.552 22.72A511.632 511.632 0 1 0 256.1536 68.8a62.912 62.912 0 0 0-22.72 79.552 62.912 62.912 0 0 0 79.552 22.72 399.584 399.584 0 0 1 397.712 693.2A401.504 401.504 0 0 1 165.2736 716.544c-62.496-130.672-62.496-284.08 5.68-403.408z" fill="#999999" /><path d="M460.2016 607.232c10.24 6.288 41.488-23.616 78.88-78.288 36.928-54.064 52.8-92.96 43.44-98.768-0.912-0.576-10.688-6.4-13.44-8.256-38.272-24.096-44.8-50.624-15.088-106.528 14.112-26.416 30.8-40.928 50.4-44.288s36.192 3.36 62.08 20.096l7.328 4.8 6.752 4.272c51.2 31.616 29.568 161.904-53.888 284.096C543.4176 706.24 427.6736 777.6 377.1776 746.416c-3.2-1.984-15.696-9.248-17.104-10.08a85.504 85.504 0 0 1-40.208-38.608c-8.496-20.32-1.984-43.2 20.016-68.8 35.552-41.6 62.4-51.344 92.928-37.488a129.92 129.92 0 0 1 13.936 7.52c2.848 1.712 12.56 7.792 13.44 8.336z" fill="#12ADA9" /></svg>