<?xml version="1.0" standalone="no"?><!DOCTYPE svg PUBLIC "-//W3C//DTD SVG 1.1//EN" "http://www.w3.org/Graphics/SVG/1.1/DTD/svg11.dtd"><svg class="icon" width="200px" height="181.88px" viewBox="0 0 1126 1024" version="1.1" xmlns="http://www.w3.org/2000/svg"><path d="M1023.960145 460.811634a51.199424 51.199424 0 0 1 102.391168 0v409.572354a150.849 150.849 0 0 1-153.590592 153.590593H153.616013a150.849 150.849 0 0 1-153.590592-153.590593V153.630449A150.849 150.849 0 0 1 153.616013 0.039857h143.35378a104.195858 104.195858 0 0 1 76.795296 30.718118l158.70516 174.071898H1075.159569a48.381037 48.381037 0 0 1 51.199424 51.199424A48.381037 48.381037 0 0 1 1075.159569 307.221042H532.470249a104.195858 104.195858 0 0 1-76.795297-30.718119L296.969793 102.431025H153.616013A48.381037 48.381037 0 0 0 102.416589 153.630449v716.753539A48.381037 48.381037 0 0 0 153.616013 921.583412h819.152387a48.381037 48.381037 0 0 0 51.199424-51.199424V460.811634z" fill="#999999" /><path d="M378.879656 153.630449V51.239281h547.803887c107.513415 0 199.66777 92.154356 199.66777 199.66777h-102.391168A100.701672 100.701672 0 0 0 926.691223 153.630449z" fill="#999999" /><path d="M256.007182 819.192244a51.199424 51.199424 0 0 1 0-102.391169H460.797199a51.199424 51.199424 0 0 1 0 102.391169H256.007182z" fill="#12ADA9" /></svg>