<?xml version="1.0" standalone="no"?><!DOCTYPE svg PUBLIC "-//W3C//DTD SVG 1.1//EN" "http://www.w3.org/Graphics/SVG/1.1/DTD/svg11.dtd"><svg class="icon" width="200px" height="192.12px" viewBox="0 0 1066 1024" version="1.1" xmlns="http://www.w3.org/2000/svg"><path d="M753.176995 1024H216.69841a216.981784 216.981784 0 0 1-216.69841-216.69841V386.189904a216.931777 216.931777 0 0 1 216.69841-216.698409h633.42612a216.931777 216.931777 0 0 1 216.69841 216.698409v397.608244a61.8924 61.8924 0 0 1-123.768131 0V386.189904A93.030294 93.030294 0 0 0 850.12453 293.276294H216.69841a93.013625 93.013625 0 0 0-92.913611 92.91361V807.284921A93.063632 93.063632 0 0 0 216.69841 900.23187h536.478585a61.8924 61.8924 0 0 1 0 123.76813z" fill="#999999" /><path d="M754.643877 470.235549m0 44.206475l0 200.129316q0 44.206476-44.206476 44.206476l0 0q-44.206476 0-44.206475-44.206476l0-200.129316q0-44.206476 44.206475-44.206475l0 0q44.206476 0 44.206476 44.206475Z" fill="#999999" /><path d="M68.360014 559.331933m44.206475 0l866.043529 0q44.206476 0 44.206475 44.206476l0 0q0 44.206476-44.206475 44.206476l-866.043529 0q-44.206476 0-44.206475-44.206476l0 0q0-44.206476 44.206475-44.206476Z" fill="#999999" /><path d="M380.755775 470.21888m0 44.206475l0 200.129316q0 44.206476-44.206476 44.206476l0 0q-44.206476 0-44.206475-44.206476l0-200.129316q0-44.206476 44.206475-44.206475l0 0q44.206476 0 44.206476 44.206475Z" fill="#12ADA9" /><path d="M827.371197 206.296886h-88.346275V125.335026A36.972082 36.972082 0 0 0 702.036171 88.346275H364.786769a36.972082 36.972082 0 0 0-36.938744 36.938744v80.945191h-88.346275V125.335026A125.485048 125.485048 0 0 1 364.786769 0h337.249402a125.485048 125.485048 0 0 1 125.335026 125.335026z" fill="#999999" /></svg>