<?xml version="1.0" standalone="no"?><!DOCTYPE svg PUBLIC "-//W3C//DTD SVG 1.1//EN" "http://www.w3.org/Graphics/SVG/1.1/DTD/svg11.dtd"><svg class="icon" width="200px" height="191.94px" viewBox="0 0 1067 1024" version="1.1" xmlns="http://www.w3.org/2000/svg"><path d="M989.23498 343.729962l-248.059429-36.049524a45.941874 45.941874 0 0 1-34.598202-25.13958L595.542812 57.769321a68.912811 68.912811 0 0 0-123.612667 0l-110.934446 224.788218a45.941874 45.941874 0 0 1-34.598201 25.139581L78.404796 343.729962a68.912811 68.912811 0 0 0-38.201486 117.557149L219.700248 636.246579a45.941874 45.941874 0 0 1 13.212042 40.670403l-42.371954 247.058517a68.912811 68.912811 0 0 0 99.991138 72.64955l221.868891-116.639646a45.941874 45.941874 0 0 1 42.755637 0l221.86889 116.639646q2.001825 1.050958 4.070377 1.985143a36.967027 36.967027 0 0 0 31.695556-66.727486l-27.825362-14.496547a11.67731 11.67731 0 0 1-2.58569-0.98423l-77.90434-40.987358-23.855076-12.461358q-1.167731-0.617229-2.285416-1.317868l-123.045484-64.692298a45.941874 45.941874 0 0 0-42.755637 0L285.260003 916.401929a11.493809 11.493809 0 0 1-16.681872-12.111039l43.372866-253.030627a45.941874 45.941874 0 0 0-13.212042-40.670402L114.871367 431.393197a11.493809 11.493809 0 0 1 6.372475-19.584517L375.342109 374.875016a45.941874 45.941874 0 0 0 34.598201-25.13958l113.620227-230.209827a11.493809 11.493809 0 0 1 20.602111 0l113.620227 230.209827a45.941874 45.941874 0 0 0 34.514792 25.13958l254.064903 36.916982a11.493809 11.493809 0 0 1 6.372475 19.584517L768.917503 610.556497a45.941874 45.941874 0 0 0-13.228724 40.703766l25.022807 146.366741a45.941874 45.941874 0 0 0 45.291281 38.134758 30.461097 30.461097 0 0 0 30.027369-35.649159l-21.369477-123.228985a45.941874 45.941874 0 0 1 13.212042-40.670403l179.496937-174.959468a68.912811 68.912811 0 0 0-38.201486-117.557149z" fill="#999999" /><path d="M258.418871 1024a88.413919 88.413919 0 0 1-86.91255-103.294148l42.371953-247.058517a26.574221 26.574221 0 0 0-7.640297-23.538121L26.690994 475.149746a88.280464 88.280464 0 0 1 48.927929-150.570572L323.628307 288.596377a26.690994 26.690994 0 0 0 20.018246-14.546592L454.664408 49.211521a88.280464 88.280464 0 0 1 158.31096 0L723.993223 273.983057a26.590903 26.590903 0 0 0 20.018246 14.546592l248.059429 36.049525a88.280464 88.280464 0 0 1 48.877883 150.570572L861.41848 650.125896a26.574221 26.574221 0 0 0-7.640297 23.538121l21.352796 123.195621a49.812068 49.812068 0 0 1-49.078066 58.38655h-0.100091a65.176072 65.176072 0 0 1-64.225206-54.249446l-25.022807-146.383423a65.259481 65.259481 0 0 1 18.783787-57.802684L927.845693 428.724097l-238.283853-34.698292a65.292845 65.292845 0 0 1-49.178157-35.715887L533.819888 142.379773l-106.563795 215.930145a65.259481 65.259481 0 0 1-49.178157 35.715887L139.794083 428.724097l172.440506 168.003128a65.292845 65.292845 0 0 1 18.783787 57.802685L290.264564 891.862896l213.144272-112.052131a65.276163 65.276163 0 0 1 60.772058 0l124.263261 65.392936 1.050958 0.600548 132.270559 68.946175a55.050176 55.050176 0 0 1 24.505669 74.801511 54.382901 54.382901 0 0 1-73.099961 26.690995c-1.768278-0.80073-3.453147-1.668187-5.121334-2.485599l-221.868891-116.673009a26.690994 26.690994 0 0 0-24.755898 0l-221.868891 116.656327a88.413919 88.413919 0 0 1-41.137495 10.259351zM533.819888 38.701942a48.627655 48.627655 0 0 0-44.440506 27.625179l-110.934445 224.788219a65.292845 65.292845 0 0 1-49.178157 35.715886l-248.05943 36.049525a49.56184 49.56184 0 0 0-27.475042 84.543724L233.245927 622.400626a65.276163 65.276163 0 0 1 18.783788 57.802684l-42.371954 247.058517a49.56184 49.56184 0 0 0 71.915548 52.264304l221.868891-116.656328a65.292845 65.292845 0 0 1 60.772058 0l221.868891 116.656328c0.98423 0.517138 1.985143 1.000912 3.0361 1.484686a16.014597 16.014597 0 0 0 22.37039-8.340936 16.84869 16.84869 0 0 0-7.57357-23.588166l-26.307311-13.712498a31.161736 31.161736 0 0 1-4.220514-1.851688l-101.759416-53.381989a41.037404 41.037404 0 0 1-2.902645-1.668187l-122.528346-64.392024a26.690994 26.690994 0 0 0-24.755898 0l-227.240453 119.458882a30.84478 30.84478 0 0 1-44.74078-32.496286l43.372866-253.030627a26.590903 26.590903 0 0 0-7.640297-23.53812L101.375733 445.255832A30.84478 30.84478 0 0 1 118.441288 392.641209l254.064903-36.916981a26.590903 26.590903 0 0 0 20.018245-14.546592l113.620227-230.209827a30.84478 30.84478 0 0 1 55.317086 0l113.620227 230.209827a26.590903 26.590903 0 0 0 20.018246 14.546592L949.198488 392.641209a30.84478 30.84478 0 0 1 17.098918 52.597941L782.379773 624.452496a26.574221 26.574221 0 0 0-7.640297 23.53812l25.022807 146.383423a26.540858 26.540858 0 0 0 26.157175 22.086798 11.093445 11.093445 0 0 0 10.926626-12.995178l-21.369478-123.212303a65.276163 65.276163 0 0 1 18.767106-57.836049l179.496937-174.97615a49.56184 49.56184 0 0 0-27.475042-84.543724l-248.059429-36.049525a65.276163 65.276163 0 0 1-49.161476-35.715887L578.260394 66.343803A48.627655 48.627655 0 0 0 533.819888 38.701942z m257.584778 860.551023z" fill="#999999" /><path d="M635.429167 684.590643H420.933663a45.157826 45.157826 0 1 1 0-90.315653h214.495504a45.157826 45.157826 0 1 1 0 90.315653z" fill="#12ADA9" /></svg>